<svg xmlns="http://www.w3.org/2000/svg" width="40" height="40" viewBox="0 0 40 40">
  <defs>
    <style>
      .cls-1 {
        fill: none;
      }

      .cls-2 {
        fill: #08053b;
      }

      .cls-3 {
        fill: #00eb75;
      }
    </style>
  </defs>
  <g id="wwglogotw" transform="translate(-652 -80)">
    <circle id="楕円形_4" data-name="楕円形 4" class="cls-1" cx="20" cy="20" r="20" transform="translate(652 80)"/>
    <path id="パス_4" data-name="パス 4" class="cls-2" d="M6.65-117.125h4.76v.8h-.625a1.143,1.143,0,0,0-.66.145.457.457,0,0,0-.2.388,1.469,1.469,0,0,0,.116.544l2.445,6.136,2.116-5.826a3.074,3.074,0,0,0-.778-1.16,2.228,2.228,0,0,0-1.181-.227v-.8h5.239v.8h-.44a1.554,1.554,0,0,0-.828.156.5.5,0,0,0-.226.434,1.415,1.415,0,0,0,.1.486l2.466,6.136,1.954-5.453a2.812,2.812,0,0,0,.2-.926.676.676,0,0,0-.3-.59,2.327,2.327,0,0,0-1.135-.243v-.8H23.9v.8a2.3,2.3,0,0,0-1.193.492,2.766,2.766,0,0,0-.683,1.116l-3.141,8.766H18.2l-3.049-7.586-2.73,7.586h-.67l-3.895-9.587a1.321,1.321,0,0,0-.417-.608,1.592,1.592,0,0,0-.787-.179Z" transform="translate(655.911 217.723)"/>
    <path id="パス_5" data-name="パス 5" class="cls-3" d="M327.792,12.259,308.526,44.143h38.688l-9.526-17.5-4.083,12.248,4.083-9.526,7.388,13.609H310.859l16.932-28.384Z" transform="translate(344 70)"/>
  </g>
</svg>
