<svg xmlns="http://www.w3.org/2000/svg" width="50" height="50" viewBox="0 0 50 50">
  <defs>
    <style>
      .cls-1 {
        fill: none;
      }

      .cls-2 {
        fill: #08053b;
      }

      .cls-3 {
        fill: #00eb75;
      }
    </style>
  </defs>
  <g id="wwglogotw" transform="translate(-652 -80)">
    <circle id="楕円形_4" data-name="楕円形 4" class="cls-1" cx="25" cy="25" r="25" transform="translate(652 80)"/>
    <path id="パス_4" data-name="パス 4" class="cls-2" d="M6.65-117.125H12.6v1h-.781a1.428,1.428,0,0,0-.824.181.571.571,0,0,0-.246.484,1.835,1.835,0,0,0,.145.68l3.054,7.664,2.642-7.277a3.839,3.839,0,0,0-.972-1.449,2.782,2.782,0,0,0-1.475-.283v-1h6.544v1h-.55a1.941,1.941,0,0,0-1.034.2.623.623,0,0,0-.282.542,1.768,1.768,0,0,0,.13.607l3.08,7.664,2.441-6.811a3.512,3.512,0,0,0,.246-1.157.845.845,0,0,0-.376-.738,2.906,2.906,0,0,0-1.417-.3v-1h5.273v1a2.877,2.877,0,0,0-1.49.614,3.455,3.455,0,0,0-.853,1.394L21.927-103.17h-.853l-3.809-9.475-3.41,9.475h-.837L8.154-115.144a1.65,1.65,0,0,0-.521-.759,1.988,1.988,0,0,0-.983-.224Z" transform="translate(658.41 222.29)"/>
    <path id="パス_5" data-name="パス 5" class="cls-3" d="M332.589,12.259,308.526,52.082h48.322l-11.9-21.854-5.1,15.3,5.1-11.9,9.227,17H311.44l21.149-35.452Z" transform="translate(344 70)"/>
  </g>
</svg>
