<svg xmlns="http://www.w3.org/2000/svg" width="512" height="512" viewBox="0 0 512 512">
  <defs>
    <style>
      .cls-1 {
        fill: none;
      }

      .cls-2 {
        fill: #08053b;
      }

      .cls-3 {
        fill: #00eb75;
      }
    </style>
  </defs>
  <g id="wwglogotw" transform="translate(-652 -80)">
    <circle id="楕円形_4" data-name="楕円形 4" class="cls-1" cx="256" cy="256" r="256" transform="translate(652 80)"/>
    <path id="パス_4" data-name="パス 4" class="cls-2" d="M6.65-117.125H68.285v10.345h-8.1q-6,0-8.546,1.874a5.922,5.922,0,0,0-2.549,5.023,19.024,19.024,0,0,0,1.5,7.047L82.259-13.375l27.395-75.446q-5.732-12.081-10.08-15.02T84.28-106.78v-10.345h67.845v10.345h-5.7q-7.8,0-10.72,2.024a6.462,6.462,0,0,0-2.924,5.622,18.33,18.33,0,0,0,1.349,6.3l31.935,79.462,25.307-70.616a36.409,36.409,0,0,0,2.549-11.994,8.755,8.755,0,0,0-3.9-7.646q-3.9-2.7-14.693-3.148v-10.345H230v10.345q-10.2,1.649-15.443,6.368t-8.846,14.457L165.033,27.555h-8.839L116.709-70.675,81.359,27.555H72.68L22.243-96.59q-2.4-5.845-5.4-7.868T6.65-106.78Z" transform="translate(780.818 453.856)"/>
    <path id="パス_5" data-name="パス 5" class="cls-3" d="M558,12.259,308.526,425.125H809.5L686.148,198.553l-52.867,158.6L686.148,233.8l95.664,176.223H338.736L558,42.469Z" transform="translate(349 87)"/>
  </g>
</svg>
